<svg xmlns="http://www.w3.org/2000/svg" viewBox="0 0 214.9 141.96"><defs><style>.cls-1{fill:#fff;}</style></defs><title>Asset 3</title><g id="Layer_2" data-name="Layer 2"><g id="Layer_1-2" data-name="Layer 1"><path class="cls-1" d="M141.6,19.06a2.39,2.39,0,0,0-1.4-2.9,2.35,2.35,0,0,0-3,.7l-5.6,12.2-.1.2a2.34,2.34,0,0,0,1.5,2.8,2.52,2.52,0,0,0,3.2-.9l5.4-11.8v-.3Z"/><path class="cls-1" d="M117.1,9.66a2.33,2.33,0,0,1,3-1.2,2.4,2.4,0,0,1,1.8,2.5L118,23.86l-.1.2a2.31,2.31,0,0,1-2.9,1.1,2.46,2.46,0,0,1-1.8-2.8L117.1,10v-.3Z"/><path class="cls-1" d="M135.8,3.06l.1-.6h-.1a2.66,2.66,0,0,0-1.7-1.9,2.48,2.48,0,0,0-3,.9l-.1.1-9,24-.1.2a2.3,2.3,0,0,0,1.6,2.7,2.26,2.26,0,0,0,3-1l8.8-23.4h.1l.2-.8A.22.22,0,0,0,135.8,3.06Z"/><path class="cls-1" d="M167.4,54.56a2.3,2.3,0,0,0,.8-3.1,2.63,2.63,0,0,0-2.7-1.5l-12.2,5.6-.2.1a2.28,2.28,0,0,0-.7,3.1,2.51,2.51,0,0,0,3,1.4l11.8-5.4.2-.2Z"/><path class="cls-1" d="M154.9,31.46a2.2,2.2,0,0,1,3,1.1,2.39,2.39,0,0,1-.3,3.1l-11.3,7.1-.2.1a2.26,2.26,0,0,1-2.9-1.1,2.44,2.44,0,0,1,.5-3.3l11-6.9.2-.1Z"/><path class="cls-1" d="M173.4,38.66l.5-.4-.1-.1a2.5,2.5,0,0,0-.1-2.5,2.46,2.46,0,0,0-2.9-1.2h-.1l-22.5,12.3-.1.1a2.29,2.29,0,0,0-.5,3.1,2.41,2.41,0,0,0,2.9,1.3l21.9-12h0l.7-.5C173.3,38.76,173.3,38.66,173.4,38.66Z"/><path class="cls-1" d="M165.2,94.86a2.29,2.29,0,0,0,2.5-2,2.38,2.38,0,0,0-1.3-2.8l-13.1-3h-.2a2.2,2.2,0,0,0-2.4,2,2.32,2.32,0,0,0,1.6,2.9l12.6,2.8.3.1Z"/><path class="cls-1" d="M169.4,69a2.35,2.35,0,0,1,1.8,2.7,2.46,2.46,0,0,1-2.1,2.3l-13.3-1.2h-.2a2.58,2.58,0,0,1,.7-5L169.2,69Z"/><path class="cls-1" d="M179.7,85.86h.6v-.1a2.86,2.86,0,0,0,1.5-2.1c.1-1.3-.5-2.5-1.5-2.7h-.1l-25.3-3.9h-.2a2.6,2.6,0,0,0-.7,5l24.7,3.8V86l.8.1C179.5,85.86,179.6,85.86,179.7,85.86Z"/><path class="cls-1" d="M73.7,18.66a2.39,2.39,0,0,1,1.4-2.9,2.35,2.35,0,0,1,3,.7l5.6,12.2.1.2a2.34,2.34,0,0,1-1.5,2.8,2.52,2.52,0,0,1-3.2-.9L73.7,19v-.3Z"/><path class="cls-1" d="M98.2,9.26a2.33,2.33,0,0,0-3-1.2,2.4,2.4,0,0,0-1.8,2.5l3.9,12.8.1.2a2.31,2.31,0,0,0,2.9,1.1,2.46,2.46,0,0,0,1.8-2.8L98.2,9.46v-.2Z"/><path class="cls-1" d="M79.5,2.66l-.1-.6h.1A2.66,2.66,0,0,1,81.2.16a2.48,2.48,0,0,1,3,.9l.1.1,9,24,.1.2a2.3,2.3,0,0,1-1.6,2.7,2.26,2.26,0,0,1-3-1L80,3.66h-.1l-.2-.8Z"/><path class="cls-1" d="M47.4,53.66a2.3,2.3,0,0,1-.8-3.1,2.63,2.63,0,0,1,2.7-1.5l12.2,5.6.2.1a2.28,2.28,0,0,1,.7,3.1,2.51,2.51,0,0,1-3,1.4l-11.8-5.4-.2-.2Z"/><path class="cls-1" d="M59.9,30.56a2.2,2.2,0,0,0-3,1.1,2.39,2.39,0,0,0,.3,3.1l11.3,7.1.2.1a2.26,2.26,0,0,0,2.9-1.1,2.44,2.44,0,0,0-.5-3.3l-11-6.9-.2-.1Z"/><path class="cls-1" d="M41.4,37.66l-.5-.4.1-.1a2.5,2.5,0,0,1,.1-2.5,2.46,2.46,0,0,1,2.9-1.2h.1l22.5,12.3.1.1a2.29,2.29,0,0,1,.5,3.1,2.41,2.41,0,0,1-2.9,1.3l-21.9-12h0l-.7-.5C41.5,37.76,41.5,37.76,41.4,37.66Z"/><path class="cls-1" d="M49.6,94a2.29,2.29,0,0,1-2.5-2,2.38,2.38,0,0,1,1.3-2.8l13.1-3h.2a2.2,2.2,0,0,1,2.4,2,2.32,2.32,0,0,1-1.6,2.9l-12.6,2.8-.3.1Z"/><path class="cls-1" d="M45.4,68.06a2.35,2.35,0,0,0-1.8,2.7,2.46,2.46,0,0,0,2.1,2.3L59,71.86h.2a2.58,2.58,0,0,0-.7-5l-12.9,1.2Z"/><path class="cls-1" d="M35.1,85h-.6v-.1a2.86,2.86,0,0,1-1.5-2.1c-.1-1.3.5-2.5,1.5-2.7h.1l25.3-3.9h.2a2.6,2.6,0,0,1,.7,5L36.1,85v.1l-.8.1C35.3,85,35.2,85,35.1,85Z"/><path class="cls-1" d="M74.8,85.36l13.6-20.5c.4-.7,3.1-4.9,7-4.7,2.5.1,4.7,1.9,6.5,5.3l7.3,12.4a.1.1,0,0,0,.1.1c1,2,1.9,2.8,2.4,2.8.8,0,2.1-1.4,2.7-2.4,0-.1.1-.1.1-.2l6.3-8.8a2.36,2.36,0,0,1,3.8,2.8l-6.3,8.7c-.5.9-3.1,4.8-6.9,4.7-2.6-.1-4.7-1.9-6.5-5.4l-.4-.7-6.9-11.7a.35.35,0,0,1-.1-.2c-1-2-1.9-2.8-2.4-2.8h0c-.8,0-2.1,1.4-2.7,2.4a.1.1,0,0,1-.1.1L78,89h0a4.67,4.67,0,0,1-4.3,2c-2.5-.1-3.8-4.8-3.8-4.8h0A70.58,70.58,0,0,1,67.7,77a35.17,35.17,0,0,1-.4-5.6,40.1,40.1,0,1,1,80.2,0A39.56,39.56,0,0,1,143.4,89a2.45,2.45,0,0,1-2.1,1.3,3,3,0,0,1-1-.2,2.36,2.36,0,0,1-.9-.8c-.1-.1-.2-.3-.3-.4l-15.2-28v-.1c-1-2-1.9-2.8-2.4-2.8-.8,0-2.1,1.4-2.7,2.4,0,.1-.1.1-.1.2l-6.4,9.3a2.37,2.37,0,0,1-3.9-2.7l6.3-9.3c.5-.8,3-4.7,6.8-4.7h.2c2.6.1,4.7,1.9,6.5,5.4l12.9,23.8a33.83,33.83,0,0,0,1.8-11,35.3,35.3,0,0,0-70.6,0,41.93,41.93,0,0,0,.3,5c-.2.2,0,2.4,2.2,9"/><path class="cls-1" d="M24.5,108.76a9.55,9.55,0,0,0-5.2,1.5,15,15,0,0,0-2.3,2,7.4,7.4,0,0,0-2.3-2,9.55,9.55,0,0,0-5.2-1.5,8.91,8.91,0,0,0-6.7,2.8,9.13,9.13,0,0,0-2.8,6.8v13.2a2.16,2.16,0,0,0,2.1,2,2.14,2.14,0,0,0,2.1-2.2v-13.1a5.07,5.07,0,0,1,1.6-3.8,5.07,5.07,0,0,1,3.8-1.6,5.07,5.07,0,0,1,3.8,1.6,5.07,5.07,0,0,1,1.6,3.8v13.3a2.16,2.16,0,0,0,2.1,2,2.14,2.14,0,0,0,2.1-2.2v-13.1a5.46,5.46,0,0,1,5.4-5.4,5.46,5.46,0,0,1,5.4,5.4v13.3h0a2.16,2.16,0,0,0,2.1,2,2.08,2.08,0,0,0,2.1-2.2v-13.1a9.29,9.29,0,0,0-2.8-6.8A9.67,9.67,0,0,0,24.5,108.76Z"/><path class="cls-1" d="M59.9,108.66A10.93,10.93,0,0,0,49,119.56v12.2a2.08,2.08,0,0,0,2.1,1.9,2.16,2.16,0,0,0,2.1-2.3v-11.8a6.41,6.41,0,0,1,1.9-4.7,6.26,6.26,0,0,1,4.7-1.9,6.41,6.41,0,0,1,4.7,1.9,6.26,6.26,0,0,1,1.9,4.7v12.1a2.16,2.16,0,0,0,2.1,2,2.2,2.2,0,0,0,2.1-2.2v-12a10.57,10.57,0,0,0-3.2-7.7A10,10,0,0,0,59.9,108.66Z"/><path class="cls-1" d="M123.6,108.76a11.79,11.79,0,0,0-8.8,3.7,12.4,12.4,0,0,0,8.8,21.2,12.3,12.3,0,0,0,6.2-1.7,14.29,14.29,0,0,0,2-1.4v1.1a2.16,2.16,0,0,0,2.1,2,2.14,2.14,0,0,0,2.1-2.2v-10.3a12.08,12.08,0,0,0-3.6-8.8A11.92,11.92,0,0,0,123.6,108.76Zm8.2,12.4a8.19,8.19,0,1,1-2.4-5.8A7.85,7.85,0,0,1,131.8,121.16Z"/><path class="cls-1" d="M144.1,102.86h0a2.14,2.14,0,0,0-2.1,2.2v26.6a2.16,2.16,0,0,0,2.1,2,2.14,2.14,0,0,0,2.1-2.2v-26.6A2.09,2.09,0,0,0,144.1,102.86Z"/><path class="cls-1" d="M183.7,112a12,12,0,0,0-8.4-3.3,11.79,11.79,0,0,0-8.8,3.7,12.4,12.4,0,0,0,8.8,21.2,12.57,12.57,0,0,0,7.2-2.3,11.42,11.42,0,0,0,2.9-2.9l.2-.4a1.73,1.73,0,0,0,.1-1.7,2,2,0,0,0-1.2-1.1c-1-.5-2.1.3-2.7,1.1a6.68,6.68,0,0,1-2,1.7,8.23,8.23,0,0,1-4.5,1.4,8,8,0,0,1-5.6-2.2,7.69,7.69,0,0,1-2.3-4.1h19a1.32,1.32,0,0,0,1.3-1.3v-.6a4.48,4.48,0,0,0-.1-1.1A12,12,0,0,0,183.7,112Zm-16.3,6.8a7.46,7.46,0,0,1,2.4-3.7h0a7.88,7.88,0,0,1,5.5-2.1,8.05,8.05,0,0,1,5.5,2.1,8.2,8.2,0,0,1,2.4,3.7Z"/><path class="cls-1" d="M214.7,110.66a2.16,2.16,0,0,0-2.1-2h0a2.14,2.14,0,0,0-2.1,2.2v10.9a7,7,0,0,1-2.2,5.3,7.25,7.25,0,0,1-5.3,2.2,7,7,0,0,1-5.3-2.2,7.25,7.25,0,0,1-2.2-5.3v-11.1a2.16,2.16,0,0,0-2.1-2h0a2.23,2.23,0,0,0-2.1,2.3v10.9a11.78,11.78,0,0,0,11.8,11.7,11.66,11.66,0,0,0,5.8-1.5,8.34,8.34,0,0,0,1.2-.8,7.15,7.15,0,0,1-1.9,4,7.85,7.85,0,0,1-5.8,2.4,8.16,8.16,0,0,1-5.8-2.3,10,10,0,0,1-1-1.1l-.2-.3a2.14,2.14,0,0,0-2.8-.3,2.08,2.08,0,0,0-.5,2.8l.1.2a20,20,0,0,0,1.4,1.6,12.43,12.43,0,0,0,17.6.1c2.4-2.4,3.6-6.5,3.7-9.8v-17.7Z"/><path class="cls-1" d="M43.7,110.76a2.11,2.11,0,0,0-2.1-2.1,2.15,2.15,0,0,0-2.1,1.8v21.1h0a2.11,2.11,0,0,0,4.2.1v-20.9Z"/><path class="cls-1" d="M80.3,110.76a2.11,2.11,0,0,0-2.1-2.1,2.08,2.08,0,0,0-2.1,1.9v21.1a2.16,2.16,0,0,0,2.1,2,2.14,2.14,0,0,0,2.1-2.2v-20.7Z"/><path class="cls-1" d="M157.5,104.66l-.1-.6h-.1a2.1,2.1,0,0,0-4,.8v26.8a2.16,2.16,0,0,0,2.1,2,2.09,2.09,0,0,0,2.1-2v-25.8h0V105A.19.19,0,0,0,157.5,104.66Z"/><path class="cls-1" d="M107,108.66h0a2.44,2.44,0,0,0-2.2,1.5L96.5,126l-8.3-15.7a2.48,2.48,0,0,0-2.2-1.6,2.14,2.14,0,0,0-1.8.9,2,2,0,0,0-.2,1.7l11.3,21.6a1.39,1.39,0,0,0,1.2.7,1.52,1.52,0,0,0,1.2-.7l11.2-21.3c0-.1.1-.2.1-.3a1.84,1.84,0,0,0-.2-1.6A2.23,2.23,0,0,0,107,108.66Z"/><circle class="cls-1" cx="41.7" cy="103.86" r="2.4"/><circle class="cls-1" cx="78.1" cy="103.86" r="2.4"/></g></g></svg>